<?xml version="1.0" encoding="UTF-8"?>
<svg width="74px" height="60px" viewBox="0 0 74 60" version="1.1" xmlns="http://www.w3.org/2000/svg" xmlns:xlink="http://www.w3.org/1999/xlink">
    <title>caravel copy</title>
    <defs>
        <path d="M0,0 L71.6603506,0 L71.6603506,56.5718866 L0,56.5718866 L0,0 Z" id="path-1"></path>
    </defs>
    <g id="Page-1" stroke="none" stroke-width="1" fill="none" fill-rule="evenodd" stroke-linecap="round" stroke-linejoin="round">
        <g id="caravel-copy" transform="translate(1.0163, 1.6071)" xlink:href="#path-1" stroke="#CB9D4B" stroke-width="1.9125">
            <line x1="58.249276" y1="48.7686486" x2="66.4814605" y2="35.0369877" id="Stroke-1"></line>
            <path d="M5.3840583,34.2550978 L5.3840583,41.8513768 C5.3840583,44.4195782 5.92901982,46.8571574 6.90693079,49.0496443" id="Stroke-2"></path>
            <path d="M2.8871022,33.7869295 L18.1809627,33.7869295 L18.1809627,33.7869295 C18.1809627,37.7947844 21.4298393,41.043661 25.4376942,41.043661 L40.3238869,41.043661 C42.8503032,41.043661 45.2396014,39.895274 46.8179532,37.9225976 L46.8179532,37.922422 L70.8510371,33.943009" id="Stroke-4"></path>
            <line x1="15.3718827" y1="0" x2="15.3718827" y2="6.04724697" id="Stroke-6"></line>
            <line x1="15.3718827" y1="28.1687695" x2="15.3718827" y2="33.4357945" id="Stroke-8"></line>
            <line x1="36.2058459" y1="0" x2="36.2058459" y2="2.18476197" id="Stroke-10"></line>
            <line x1="36.2058459" y1="11.7825105" x2="36.2058459" y2="14.708694" id="Stroke-12"></line>
            <line x1="36.2058459" y1="36.4789587" x2="36.2058459" y2="40.9266102" id="Stroke-14"></line>
            <line x1="54.9329991" y1="11.1582802" x2="54.9329991" y2="13.4211698" id="Stroke-16"></line>
            <line x1="54.9329991" y1="22.0824588" x2="54.9329991" y2="24.3453483" id="Stroke-18"></line>
            <line x1="54.9329991" y1="33.7869295" x2="54.9329991" y2="36.127771" id="Stroke-20"></line>
            <path d="M30.265818,21.2701255 C30.4398054,26.8521186 29.5259765,32.0308332 27.8466734,36.2058283 L43.4612957,36.2058283 C45.0196328,32.2766277 45.5954942,27.3847904 44.8481034,22.2373269 C44.4790605,19.6956362 43.8178733,17.3058114 42.9293262,15.1368505 L29.6321949,15.1368505 C29.9815742,17.104611 30.2001557,19.1603309 30.265818,21.2701255 Z" id="Stroke-22"></path>
            <path d="M5.09712833,28.1687871 L22.3587494,28.1687871 C24.8361824,19.4934702 24.2115132,11.236004 21.0720152,6.39911935 L8.75033687,6.39911935 C8.85339499,6.82539724 8.9532929,7.9460446 9.04388573,9.33443239 C9.4368058,15.3653516 8.33195952,21.4069804 5.78271942,26.8866176 C5.47091154,27.5567588 5.22546817,28.0297376 5.09712833,28.1687871 Z" id="Stroke-24"></path>
            <path d="M50.0171266,33.3187437 C52.9822861,31.6020447 49.2369046,24.3453132 49.2369046,24.3453132 L60.0829381,24.3453132 C60.0829381,24.3453132 63.8284951,31.6020447 60.8633356,33.3187437 L50.0171266,33.3187437 Z" id="Stroke-26"></path>
            <path d="M58.2882871,13.4877274 C58.2882871,13.4877274 62.0336686,19.6810465 59.0685091,21.1461573 L50.6414446,21.0794417 C53.6064286,19.6143309 49.8610471,13.4211873 49.8610471,13.4211873 L58.2882871,13.4877274 Z" id="Stroke-28"></path>
            <path d="M30.2755795,11.1582802 L41.433772,11.1582802 C44.3989315,9.44158123 40.65355,2.18484975 40.65355,2.18484975 L29.807341,2.18484975 C29.807341,2.18484975 33.552898,9.44158123 30.5877385,11.1582802" id="Stroke-30"></path>
            <path d="M0,52.5923683 L5.97947792,49.5689203 C8.69146909,48.1975626 11.6590865,48.0142701 14.4539456,49.0453781 L19.5431207,50.9227213 C22.0217827,51.8372524 24.6428299,51.7988032 27.1058663,50.8119382 L31.9006148,48.8907031 C34.2579596,47.9463255 36.752247,47.873465 39.1218816,48.660183" id="Stroke-32"></path>
            <path d="M71.6603506,52.5923683 L65.6808727,49.5689203 C62.9688815,48.1975626 60.0012641,48.0142701 57.2064051,49.0453781 L52.1172299,50.9227213 C49.638568,51.8372524 47.0175208,51.7988032 44.5544843,50.8119382 L39.7597359,48.8907031 C37.4023911,47.9463255 34.9081036,47.873465 32.538469,48.660183" id="Stroke-34"></path>
            <path d="M0,56.5718866 L5.97947792,53.5484386 C8.69146909,52.1770809 11.6590865,51.9937884 14.4539456,53.0248963 L19.5431207,54.9022396 C22.0217827,55.8167707 24.6428299,55.7783215 27.1058663,54.7914565 L31.9006148,52.8702214 C34.2579596,51.9258438 36.752247,51.8529833 39.1218816,52.6397013" id="Stroke-36"></path>
            <path d="M71.6603506,56.5718866 L65.6808727,53.5484386 C62.9688815,52.1770809 60.0012641,51.9937884 57.2064051,53.0248963 L52.1172299,54.9022396 C49.638568,55.8167707 47.0175208,55.7783215 44.5544843,54.7914565 L39.7597359,52.8702214 C37.4023911,51.9258438 34.9081036,51.8529833 32.538469,52.6397013" id="Stroke-38"></path>
        </g>
    </g>
</svg>