<svg width="300" height="300" viewBox="0 0 300 300" fill="none" xmlns="http://www.w3.org/2000/svg">
<path d="M205.571 201.341L231.639 227.409L227.397 231.652L201.329 205.584L205.571 201.341Z" fill="#EED58A"/>
<path d="M72.6035 68.3735L98.6714 94.4415L94.4288 98.6841L68.3608 72.6162L72.6035 68.3735Z" fill="#EED58A"/>
<path d="M94.4288 201.341L98.6714 205.584L72.6035 231.652L68.3608 227.409L94.4288 201.341Z" fill="#EED58A"/>
<path d="M227.397 68.3735L231.639 72.6162L205.571 98.6841L201.329 94.4415L227.397 68.3735Z" fill="#EED58A"/>
<path d="M252.747 104.206L255.043 109.75L220.984 123.857L218.688 118.314L252.747 104.206Z" fill="#EED58A"/>
<path d="M79.0161 176.168L81.3122 181.711L47.2531 195.819L44.957 190.276L79.0161 176.168Z" fill="#EED58A"/>
<path d="M181.699 218.7L195.806 252.759L190.263 255.056L176.155 220.997L181.699 218.7Z" fill="#EED58A"/>
<path d="M109.737 44.97L123.845 79.029L118.302 81.3251L104.194 47.2661L109.737 44.97Z" fill="#EED58A"/>
<path d="M118.302 218.7L123.845 220.997L109.737 255.056L104.194 252.759L118.302 218.7Z" fill="#EED58A"/>
<path d="M190.263 44.97L195.806 47.2661L181.699 81.3251L176.155 79.029L190.263 44.97Z" fill="#EED58A"/>
<path d="M47.2531 104.206L81.3122 118.314L79.0161 123.857L44.957 109.75L47.2531 104.206Z" fill="#EED58A"/>
<path d="M220.984 176.168L255.043 190.276L252.747 195.819L218.688 181.711L220.984 176.168Z" fill="#EED58A"/>
<path d="M147 37.5576V74.4231H153V37.5576H147Z" fill="#EED58A"/>
<path d="M147 225.577V262.442H153V225.577H147Z" fill="#EED58A"/>
<path d="M262.455 147.013H225.589V153.013H262.455V147.013Z" fill="#EED58A"/>
<path d="M74.4104 147.78H37.5449V153.78H74.4104V147.78Z" fill="#EED58A"/>
<path d="M160.835 168.332L170.619 191.952L165.076 194.248L155.292 170.628L160.835 168.332Z" fill="#AF873D"/>
<path d="M134.924 105.777L144.708 129.397L139.164 131.693L129.381 108.073L134.924 105.777Z" fill="#AF873D"/>
<path d="M165.076 105.777L170.619 108.073L160.835 131.693L155.292 129.397L165.076 105.777Z" fill="#AF873D"/>
<path d="M139.164 168.332L144.708 170.628L134.924 194.248L129.381 191.952L139.164 168.332Z" fill="#AF873D"/>
<path d="M170.616 155.305L194.236 165.089L191.939 170.632L168.32 160.848L170.616 155.305Z" fill="#AF873D"/>
<path d="M108.061 129.394L131.68 139.177L129.384 144.72L105.765 134.937L108.061 129.394Z" fill="#AF873D"/>
<path d="M180.857 114.914L185.099 119.156L167.021 137.234L162.779 132.991L180.857 114.914Z" fill="#AF873D"/>
<path d="M132.979 162.791L137.221 167.034L119.144 185.112L114.901 180.869L132.979 162.791Z" fill="#AF873D"/>
<path d="M167.021 162.791L185.099 180.869L180.857 185.112L162.779 167.034L167.021 162.791Z" fill="#AF873D"/>
<path d="M119.144 114.914L137.221 132.991L132.979 137.234L114.901 119.156L119.144 114.914Z" fill="#AF873D"/>
<path d="M191.939 129.394L194.236 134.937L170.616 144.72L168.32 139.177L191.939 129.394Z" fill="#AF873D"/>
<path d="M129.384 155.305L131.68 160.848L108.061 170.632L105.765 165.089L129.384 155.305Z" fill="#AF873D"/>
<path d="M153 128.941V103.375H147V128.941H153Z" fill="#AF873D"/>
<path d="M147 171.084V196.65H153V171.084H147Z" fill="#AF873D"/>
<path d="M171.072 153.013H196.637V147.013H171.072V153.013Z" fill="#AF873D"/>
<path d="M128.928 147.013H103.363V153.013H128.928V147.013Z" fill="#AF873D"/>
<path d="M150 128.446C161.911 128.446 171.567 138.102 171.567 150.013C171.566 161.924 161.911 171.579 150 171.579C138.089 171.579 128.433 161.924 128.433 150.013C128.433 138.102 138.089 128.446 150 128.446ZM150 134.446C141.403 134.446 134.433 141.416 134.433 150.013C134.433 158.61 141.403 165.579 150 165.579C158.597 165.579 165.566 158.61 165.567 150.013C165.567 141.416 158.598 134.446 150 134.446Z" fill="#AF873D"/>
</svg>
