<svg width="63" height="63" viewBox="0 0 63 63" fill="none" xmlns="http://www.w3.org/2000/svg">
<path d="M44.0269 36.6408C54.1916 36.6408 62.3574 28.2952 61.9879 18.1265C61.6564 8.90698 54.0305 1.3885 44.7374 1.01257C34.4875 0.636651 26.0753 8.73781 26.0753 18.8314C25.4501 24.6206 32.3276 32.3082 32.4886 32.515C35.4064 35.8231 37.0736 40.2402 36.8652 45.0427C36.4484 54.2152 28.8699 61.6209 19.662 61.9874C9.41213 62.3634 1 54.2622 1 44.1686C1 34.0751 9.04268 26.3498 18.961 26.3498" stroke="white" stroke-width="2" stroke-linecap="round"/>
<path fill-rule="evenodd" clip-rule="evenodd" d="M43.9039 28.7839L35.738 18.9911L43.9039 9.15131L52.0223 18.9911L43.9039 28.7839V28.7839Z" stroke="white" stroke-width="2" stroke-linecap="round" stroke-linejoin="round"/>
<path d="M25.2797 39.7797C25.2797 39.7797 25.4028 35.6915 19.4916 35.6915C13.5804 35.6915 13.9119 40.1932 13.9119 40.1932C13.9119 40.1932 13.7414 43.9525 20.3726 44.037C26.9564 44.1216 25.0618 49.8639 25.0618 49.8639C25.0618 49.8639 24.2755 52.6175 18.7906 52.4295C13.8172 52.251 14.073 49.112 13.874 48.2944" stroke="white" stroke-width="2" stroke-linecap="round"/>
<path d="M19.1154 33.1259V35.4754" stroke="white" stroke-width="2" stroke-linecap="round"/>
<path d="M19.0775 52.6927V55.0516" stroke="white" stroke-width="2" stroke-linecap="round"/>
</svg>
