<svg width="29" height="29" viewBox="0 0 29 29" fill="none" xmlns="http://www.w3.org/2000/svg">
<path d="M23.4581 5.86234C21.7699 5.08564 19.9637 4.51894 18.0769 4.20044C18.0501 4.19528 18.0232 4.20819 18.0089 4.23271C17.7879 4.63044 17.5438 5.14304 17.3743 5.54851C15.3414 5.25067 13.3172 5.25067 11.3258 5.54851C11.1563 5.13465 10.9037 4.63044 10.6813 4.23271C10.667 4.20947 10.6402 4.19656 10.6133 4.20044C8.72778 4.51765 6.92161 5.08435 5.23206 5.86234C5.22061 5.86749 5.21044 5.87651 5.20408 5.88811C1.81056 10.9283 0.840361 15.8508 1.28699 20.7087C1.28953 20.7373 1.30479 20.7646 1.32643 20.7817C3.58461 22.4579 5.77336 23.4759 7.92286 24.1582C7.94959 24.1669 7.97887 24.157 7.99667 24.1341C8.49253 23.4544 8.93407 22.738 9.31365 21.985C9.33274 21.9478 9.31492 21.9037 9.27673 21.8894C8.57639 21.6356 7.90904 21.3259 7.2672 20.9746C7.22519 20.9502 7.22138 20.8887 7.25957 20.8586C7.39805 20.7531 7.53654 20.6434 7.66866 20.5323C7.68776 20.5166 7.71449 20.5137 7.73613 20.5238C11.975 22.4478 16.5617 22.4478 20.7498 20.5238C20.7714 20.5123 20.7982 20.5152 20.8186 20.5309C20.9507 20.6419 21.0892 20.7531 21.2291 20.8586C21.2673 20.8887 21.2648 20.9502 21.2228 20.9746C20.581 21.3331 19.9136 21.6356 19.2119 21.888C19.1737 21.9023 19.1573 21.9478 19.1764 21.985C19.5636 22.7366 20.0051 23.453 20.4921 24.1327C20.5086 24.157 20.5391 24.1669 20.5659 24.1582C22.7241 23.4759 24.9128 22.4579 27.1711 20.7817C27.1941 20.7646 27.208 20.7387 27.2106 20.7101C27.7404 15.0737 26.3094 10.1927 23.485 5.88939C23.4799 5.87651 23.4698 5.86749 23.4581 5.86234ZM10.2252 17.9183C8.95617 17.9183 7.90904 16.7483 7.90904 15.314C7.90904 13.8797 8.93407 12.7097 10.2252 12.7097C11.5277 12.7097 12.5642 13.8926 12.5414 15.314C12.5414 16.7483 11.5164 17.9183 10.2252 17.9183ZM18.3142 17.9183C17.0452 17.9183 15.9981 16.7483 15.9981 15.314C15.9981 13.8797 17.0231 12.7097 18.3142 12.7097C19.6168 12.7097 20.6532 13.8926 20.6305 15.314C20.6305 16.7483 19.6168 17.9183 18.3142 17.9183Z" fill="#6BD1C3"/>
</svg>
