<svg width="28" height="36" viewBox="0 0 28 36" fill="none" xmlns="http://www.w3.org/2000/svg">
<path fill-rule="evenodd" clip-rule="evenodd" d="M10.0952 26.8397C9.33164 29.0602 9.31164 31.4186 11.3203 32.9807C14.2284 35.2423 18.4415 33.0595 18.3914 29.4487C18.3668 27.6833 16.894 26.3858 16.0679 24.9129C15.5876 24.0563 15.1975 23.1349 14.9709 22.1793C13.8047 22.9209 12.9256 24.3009 12.7867 25.6845C12.7219 26.3299 12.8193 26.9984 12.6947 27.6435L10.0952 26.8397ZM22.3715 13.9829C20.9259 16.8422 16.6184 16.9825 15.6825 13.6416C15.0785 11.485 15.8831 10.306 16.431 8.39335C16.8396 6.96778 16.3029 5.57379 15.3387 4.49915C15.2707 4.42329 14.8829 4.00221 14.8088 4.05685C14.2896 5.65543 13.5732 7.10873 12.1521 8.1014C11.1869 8.77546 10.3237 8.94976 9.63634 10.0345C7.89615 12.7803 10.6323 13.9608 10.0715 16.4111C9.58065 18.5551 6.97422 19.638 4.97386 18.9228C4.22291 18.6543 3.60154 18.12 3.02196 17.5988C0.770641 23.0369 2.91367 29.4073 8.06069 32.3043C6.88853 29.6541 7.66965 26.8652 8.80067 24.3555L10.8253 24.8314C11.2801 21.9264 13.8731 19.7894 16.6361 19.0431C16.8919 20.2864 16.9087 21.5259 17.3716 22.7403C18.1055 24.6653 19.9289 26.1497 20.3654 28.1384C20.6811 29.5768 20.4787 30.9543 19.9319 32.3043C25.4157 29.1593 27.4528 22.339 24.5147 16.7244C24.1042 15.94 23.4365 14.938 22.8184 14.3028C22.7481 14.2306 22.4783 13.9112 22.3715 13.9829V13.9829ZM3.10131 13.3398C3.69495 14.8461 5.00224 17.8017 7.11617 16.8651C8.84815 16.0977 7.56347 14.7758 7.20616 13.6627C6.50366 11.4748 7.15218 9.1877 8.87336 7.67317C10.0202 6.66394 11.1904 6.56992 12.0589 5.11638C12.9881 3.56087 12.9734 1.74596 12.8589 0C15.8003 1.60831 19.1152 4.3357 18.6891 8.05383C18.581 8.99709 18.0703 9.84431 17.8408 10.7511C17.5783 11.7874 17.3102 14.013 18.9226 14.0553C20.4032 14.0942 21.2423 11.5795 21.7603 10.5286C23.4631 11.8829 25.021 13.3201 26.1237 15.2142C29.8762 21.6598 27.8277 29.8628 21.5181 33.8329C15.2121 37.8007 6.91349 36.1651 2.59645 30.1926C-1.12354 25.0461 -0.750295 18.2956 3.10131 13.3398V13.3398Z" fill="#EED58A"/>
</svg>
