<svg width="96" height="96" viewBox="0 0 96 96" fill="none" xmlns="http://www.w3.org/2000/svg">
<path d="M57.5717 17.3573C63.4311 16.4571 69.3425 16.5985 75.1773 17.7785L81.3623 19.0292V77.3704L74.7967 76.0429C69.1823 74.9075 63.4986 74.7714 57.8636 75.6367L38.2898 78.6429C32.3802 79.5508 26.4183 79.3983 20.5348 78.1904L14.6367 76.9798V18.6373L20.9205 19.9273C26.5822 21.0897 32.3152 21.2361 37.9986 20.3629L57.5717 17.3573ZM74.7967 19.661C69.1822 18.5256 63.4986 18.3891 57.8636 19.2548L38.2898 22.261C32.3802 23.1689 26.4183 23.0164 20.5348 21.8085L16.5567 20.991V75.4135L20.9205 76.3098C26.5822 77.4722 32.3152 77.6186 37.9986 76.7454L57.5717 73.7385C63.431 72.8388 69.3425 72.981 75.1773 74.161L79.4423 75.0229V20.5998L74.7967 19.661Z" fill="#AF873D"/>
<path d="M54.327 40.6425L66.8576 39.1119V51.7294L54.327 53.3131V66.0106L41.6595 67.6269V54.915L29.1426 56.4987V43.7212L41.6595 42.1912V29.9887L54.327 28.3731V40.6425ZM43.5795 31.6787V43.8906L31.0626 45.42V54.32L43.5795 52.7375V65.4462L52.407 64.32V51.6206L64.9376 50.0362V41.28L52.407 42.8119V30.5531L43.5795 31.6787Z" fill="#EED58A"/>
</svg>
