<svg width="300" height="300" viewBox="0 0 300 300" fill="none" xmlns="http://www.w3.org/2000/svg">
<path d="M59.1878 28.601V268.399H53.1878L53.1865 34.601H46.8425V267.901H40.8425V31.601V28.601H59.1878Z" fill="#AF873D"/>
<path fill-rule="evenodd" clip-rule="evenodd" d="M242.493 42.327C227.076 39.2194 211.457 38.8463 195.978 41.2165L144.444 49.1046C129.535 51.3875 114.497 51.0051 99.6436 47.9656L86.1343 45.2018L82.533 44.465V198.541L84.9316 199.032L98.4409 201.796C113.988 204.977 129.741 205.378 145.352 202.988L196.886 195.098C211.67 192.836 226.58 193.192 241.308 196.161L255.565 199.034L259.157 199.758V45.6851L256.75 45.2L242.493 42.327ZM196.886 47.1474C211.669 44.8837 226.579 45.2399 241.308 48.2087L253.157 50.5959V192.428L242.493 190.279C227.077 187.172 211.458 186.798 195.978 189.167L144.444 197.057L142.787 197.299C128.421 199.307 113.947 198.844 99.6436 195.918L88.533 193.644V51.8159L98.4409 53.8438C113.988 57.0253 129.741 57.4259 145.352 55.0355L196.886 47.1474Z" fill="#AF873D"/>
<path fill-rule="evenodd" clip-rule="evenodd" d="M187.976 100.886L187.976 68.6859L184.597 69.1155L156.301 72.7133L153.679 73.0466L153.678 105.063L123.361 108.758L120.724 109.079V143.579L124.099 143.153L153.678 139.424L153.679 172.782L157.058 172.352L185.354 168.753L187.976 168.42L187.976 135.102L218.342 131.275L220.967 130.944V96.8683L217.604 97.2779L187.976 100.886ZM159.678 78.3295L181.976 75.4975L181.976 107.662L185.339 107.252L214.966 103.644V125.652L184.601 129.48L181.976 129.811L181.976 163.133L159.678 165.969L159.679 132.621L156.304 133.047L126.724 136.773V114.392L157.042 110.699L159.679 110.378L159.678 78.3295Z" fill="#EED58A"/>
</svg>
