<svg width="24" height="24" viewBox="0 0 24 24" fill="none" xmlns="http://www.w3.org/2000/svg">
<path fill-rule="evenodd" clip-rule="evenodd" d="M11.5573 0.800049C5.17188 0.800049 0 5.90059 0 12.1979C0 17.2414 3.30827 21.5014 7.90229 23.0116C8.48015 23.1113 8.69685 22.7694 8.69685 22.4702C8.69685 22.1995 8.68241 21.3019 8.68241 20.3474C5.77864 20.8745 5.02742 19.6492 4.79627 19.0081C4.66625 18.6804 4.10284 17.6689 3.61165 17.3982C3.20715 17.1845 2.62928 16.6573 3.5972 16.6431C4.50734 16.6288 5.15744 17.4694 5.37414 17.8113C6.41429 19.5353 8.07565 19.0509 8.74019 18.7517C8.84132 18.0108 9.1447 17.5121 9.47697 17.2272C6.90548 16.9423 4.21841 15.9592 4.21841 11.5995C4.21841 10.36 4.66625 9.33419 5.40303 8.53634C5.28746 8.25139 4.88295 7.08311 5.5186 5.51591C5.5186 5.51591 6.48652 5.21672 8.69685 6.68419C9.62144 6.42774 10.6038 6.29951 11.5862 6.29951C12.5685 6.29951 13.5509 6.42774 14.4755 6.68419C16.6858 5.20247 17.6537 5.51591 17.6537 5.51591C18.2894 7.08311 17.8849 8.25139 17.7693 8.53634C18.5061 9.33419 18.9539 10.3457 18.9539 11.5995C18.9539 15.9734 16.2524 16.9423 13.6809 17.2272C14.0999 17.5834 14.461 18.2673 14.461 19.3358C14.461 20.8603 14.4466 22.0855 14.4466 22.4702C14.4466 22.7694 14.6633 23.1256 15.2412 23.0116C19.8063 21.5014 23.1146 17.2272 23.1146 12.1979C23.1146 5.90059 17.9427 0.800049 11.5573 0.800049Z" fill="white"/>
</svg>
