<svg width="29" height="29" viewBox="0 0 29 29" fill="none" xmlns="http://www.w3.org/2000/svg">
<path fill-rule="evenodd" clip-rule="evenodd" d="M14.4466 1C6.46485 1 0 7.37567 0 15.2473C0 21.5517 4.13534 26.8767 9.87786 28.7645C10.6002 28.8891 10.8711 28.4617 10.8711 28.0877C10.8711 27.7493 10.853 26.6274 10.853 25.4341C7.2233 26.0931 6.28427 24.5615 5.99534 23.7601C5.83282 23.3505 5.12854 22.086 4.51456 21.7476C4.00893 21.4805 3.2866 20.8216 4.4965 20.8038C5.63417 20.786 6.4468 21.8367 6.71767 22.2641C8.01786 24.419 10.0946 23.8135 10.9252 23.4395C11.0517 22.5134 11.4309 21.8901 11.8462 21.5339C8.63184 21.1778 5.27301 19.9489 5.27301 14.4993C5.27301 12.9499 5.83282 11.6677 6.75379 10.6704C6.60932 10.3142 6.10369 8.85383 6.89825 6.89483C6.89825 6.89483 8.10816 6.52083 10.8711 8.35518C12.0268 8.03461 13.2548 7.87433 14.4827 7.87433C15.7107 7.87433 16.9386 8.03461 18.0944 8.35518C20.8573 6.50302 22.0672 6.89483 22.0672 6.89483C22.8617 8.85383 22.3561 10.3142 22.2117 10.6704C23.1326 11.6677 23.6924 12.9321 23.6924 14.4993C23.6924 19.9667 20.3155 21.1778 17.1012 21.5339C17.6249 21.9792 18.0763 22.834 18.0763 24.1697C18.0763 26.0753 18.0583 27.6069 18.0583 28.0877C18.0583 28.4617 18.3291 28.9069 19.0515 28.7645C24.7579 26.8767 28.8932 21.5339 28.8932 15.2473C28.8932 7.37567 22.4283 1 14.4466 1Z" fill="#6BD1C3"/>
</svg>
