<svg width="120" height="120" viewBox="0 0 120 120" fill="none" xmlns="http://www.w3.org/2000/svg">
<path fill-rule="evenodd" clip-rule="evenodd" d="M35.2657 53.5385L35.2291 52.3762H22.4731L22.4366 53.5385L21.0562 97.4048L21.0172 98.6426H36.685L36.6461 97.4048L35.2657 53.5385ZM24.798 54.7762H32.9036L34.2076 96.2418H23.494L24.798 54.7762Z" fill="#AF873D"/>
<path fill-rule="evenodd" clip-rule="evenodd" d="M100.782 53.5385L100.746 52.3762H87.9897L87.9532 53.5385L86.5728 97.4048L86.5338 98.6426H102.202L102.163 97.4048L100.782 53.5385ZM90.3146 54.7762H98.4202L99.7242 96.2418H89.0106L90.3146 54.7762Z" fill="#AF873D"/>
<path fill-rule="evenodd" clip-rule="evenodd" d="M57.1044 53.5385L57.0678 52.3762H44.3119L44.2753 53.5385L42.8949 97.4048L42.856 98.6426H58.5238L58.4848 97.4048L57.1044 53.5385ZM46.6367 54.7762H54.7423L56.0463 96.2418H45.3327L46.6367 54.7762Z" fill="#AF873D"/>
<path fill-rule="evenodd" clip-rule="evenodd" d="M78.9434 53.5385L78.9068 52.3762H66.1509L66.1143 53.5385L64.7339 97.4048L64.6949 98.6426H80.3628L80.3238 97.4048L78.9434 53.5385ZM68.4757 54.7762H76.5813L77.8853 96.2418H67.1717L68.4757 54.7762Z" fill="#AF873D"/>
<path fill-rule="evenodd" clip-rule="evenodd" d="M71.7297 33.3487C71.7297 27.7593 67.1989 23.2285 61.6095 23.2285C56.0201 23.2285 51.4894 27.7593 51.4894 33.3487C51.4894 34.4283 51.6638 35.4905 51.9994 36.5117L52.2706 37.3371H70.9485L71.2197 36.5117C71.5553 35.4905 71.7297 34.4283 71.7297 33.3487ZM53.8894 33.3487C53.8894 29.0848 57.3456 25.6285 61.6095 25.6285C65.8734 25.6285 69.3297 29.0848 69.3297 33.3487L69.3235 33.6562C69.3069 34.0655 69.2574 34.4712 69.176 34.8716L69.1614 34.9365H54.0574L54.043 34.8716C53.9413 34.3711 53.8894 33.8623 53.8894 33.3487Z" fill="#AF873D"/>
<path fill-rule="evenodd" clip-rule="evenodd" d="M107.596 112.14V96.2424H15.6234V112.14H107.596ZM18.0234 98.6424H105.195V109.739H18.0234V98.6424Z" fill="#EED58A"/>
<path fill-rule="evenodd" clip-rule="evenodd" d="M107.596 40.4133H106.396H15.6234V41.6133V54.7773H107.596V40.4133ZM18.0234 42.8133H105.195V52.3765H18.0234V42.8133Z" fill="#EED58A"/>
<path fill-rule="evenodd" clip-rule="evenodd" d="M62.2018 4.22388L61.6091 3.88721L61.0164 4.22389L6.67284 35.0938L6.06555 35.4387V42.8132H117.154V35.4387L116.547 35.0938L62.2018 4.22388ZM8.46555 36.8345L61.6088 6.6473L114.754 36.8353V40.4129H8.46555V36.8345Z" fill="#EED58A"/>
<path d="M9.00122 112.14H114.218V109.74H9.00122V112.14Z" fill="#AF873D"/>
<path d="M7.2655 37.337H115.954V34.937H7.2655V37.337Z" fill="#EED58A"/>
</svg>
