<svg width="63" height="28" viewBox="0 0 63 28" fill="none" xmlns="http://www.w3.org/2000/svg">
<path d="M27.0956 9.86911C27.0956 9.86911 24.7848 7.50054 22.3688 5.35326C20.7124 3.88622 19.0156 2.52573 17.9733 2.10775C16.4381 1.50946 14.6039 1.239 12.7779 1.36194C9.91753 1.55044 7.2996 2.72243 5.27152 4.55008C3.24343 6.37773 1.25575 9.80355 1.02951 13.254C0.867908 15.6963 1.37695 17.9911 2.38695 19.9827C3.41311 21.9988 4.9564 23.7035 6.83096 24.9247C8.7944 26.2032 11.1295 26.9572 13.6263 26.9982C18.1511 27.072 20.9791 24.8591 22.8375 22.9577L27.9925 17.6223L32.6305 12.8196L36.7917 8.51682L40.153 5.04182C41.2842 3.88622 42.7628 2.62408 44.7666 1.8209C46.0675 1.29637 47.5866 0.976736 49.3642 1.00132C51.8124 1.0423 54.0991 1.76353 56.0302 2.99289C58.0179 4.25503 59.642 6.0499 60.6924 8.18079C61.6539 10.1314 62.1306 12.3688 61.969 14.7456C61.8478 16.6716 61.2903 18.4746 60.4096 20.081C59.3592 21.9906 57.832 23.6052 55.9979 24.7608C54.293 25.8344 52.3215 26.5065 50.2207 26.6458C48.3946 26.7687 46.5604 26.4983 45.0252 25.9C43.6597 25.1542 41.7205 23.556 39.9833 21.9988C37.7855 20.0318 35.9029 18.1386 35.9029 18.1386" stroke="white" stroke-width="2" stroke-linecap="round"/>
</svg>
