<svg height="29" viewBox="0 0 30 29" width="30" xmlns="http://www.w3.org/2000/svg"><g fill="none" fill-rule="evenodd"><rect fill="#cb9d4b" height="29" rx="2" width="30"/><path d="m10.1628842 11.1496471h-3.85329782c-.17101552 0-.30958638.1371415-.30958638.3062562v12.2458404c0 .169176.13857086.3062563.30958638.3062563h3.85329782c.1710155 0 .3095864-.1370803.3095864-.3062563v-12.2458404c0-.1691147-.1385709-.3062562-.3095864-.3062562zm-1.64610827-6.1496471c-1.38776297 0-2.51677593 1.12833698-2.51677593 2.51524352 0 1.3875197 1.12901296 2.51628588 2.51677593 2.51628588 1.38665982 0 2.51475347-1.1288275 2.51475347-2.51628588.0000613-1.38690654-1.12809365-2.51524352-2.51475347-2.51524352zm11.69120227 5.5905882c-1.5082663 0-2.6232187.6708769-3.2994795 1.4331603v-.8107339c0-.1723863-.135047-.312181-.3017136-.312181h-3.5963656c-.1666666 0-.3017136.1397947-.3017136.312181v12.482742c0 .1724488.135047.3122434.3017136.3122434h3.7471017c.1666666 0 .3017136-.1397946.3017136-.3122434v-6.1760627c0-2.0811855.546343-2.8919818 1.9484664-2.8919818 1.5270328 0 1.648382 1.2997965 1.648382 2.9990598v6.0690472c0 .1724487.135047.3121809.3017136.3121809h3.7484896c.1666666 0 .3017136-.1397322.3017136-.3121809v-6.8470021c0-3.0946496-.570299-6.2582288-4.8000218-6.2582288z" fill="#000" fill-rule="nonzero"/></g></svg>