<svg width="38" height="51" viewBox="0 0 38 51" fill="none" xmlns="http://www.w3.org/2000/svg">
<path d="M32.531 20.8382H31.531V21.8382H32.531V20.8382ZM5.47631 20.8236V21.8236H6.47631V20.8236H5.47631ZM35.068 20.8382H34.068V21.8382H35.068V20.8382ZM17.1555 36.9092H18.1555V36.3048L17.6204 36.0238L17.1555 36.9092ZM20.8007 36.9092L20.3318 36.026L19.7711 36.3236L19.8019 36.9578L20.8007 36.9092ZM9.4277 20.5749H8.4277V21.5749H9.4277V20.5749ZM28.5723 20.5749V21.5749H29.5723V20.5749H28.5723ZM35.0753 19.8382H32.531V21.8382H35.0753V19.8382ZM33.531 20.8382V14.562H31.531V20.8382H33.531ZM33.531 14.562C33.531 6.5366 27.0132 0 19.0146 0V2C25.903 2 31.531 7.63552 31.531 14.562H33.531ZM19.0146 0C11.0195 0 4.47631 6.51846 4.47631 14.5473H6.47631C6.47631 7.6244 12.1227 2 19.0146 2V0ZM4.47631 14.5473V20.8236H6.47631V14.5473H4.47631ZM5.47631 19.8236H2.93196V21.8236H5.47631V19.8236ZM2.93196 19.8236C1.31456 19.8236 0 21.1352 0 22.7621H2C2 22.2383 2.42056 21.8236 2.93196 21.8236V19.8236ZM0 22.7621V47.8963H2V22.7621H0ZM0 47.8963C0 49.5109 1.30236 50.8348 2.93196 50.8348V48.8348C2.41817 48.8348 2 48.4177 2 47.8963H0ZM2.93196 50.8348H35.068V48.8348H2.93196V50.8348ZM35.068 50.8348C36.6854 50.8348 38 49.5232 38 47.8963H36C36 48.42 35.5794 48.8348 35.068 48.8348V50.8348ZM38 47.8963V22.7621H36V47.8963H38ZM38 22.7621C38 21.1474 36.6976 19.8236 35.068 19.8236V21.8236C35.5818 21.8236 36 22.2407 36 22.7621H38ZM34.068 20.8236V20.8382H36.068V20.8236H34.068ZM35.068 21.8382H35.0753V19.8382H35.068V21.8382ZM19.8299 37.5017V41.4226H21.8299V37.5017H19.8299ZM19.8299 41.4226C19.8299 41.8881 19.4528 42.2659 18.9927 42.2659V44.2659C20.574 44.2659 21.8299 42.976 21.8299 41.4226H19.8299ZM18.9927 42.2659C18.5275 42.2659 18.1555 41.8975 18.1555 41.4226H16.1555C16.1555 42.9958 17.4166 44.2659 18.9927 44.2659V42.2659ZM18.1555 41.4226V36.9092H16.1555V41.4226H18.1555ZM17.6204 36.0238C16.6846 35.5325 16.0413 34.5431 16.0413 33.398H14.0413C14.0413 35.3106 15.1186 36.9692 16.6907 37.7946L17.6204 36.0238ZM16.0413 33.398C16.0413 31.7624 17.3659 30.4479 18.9781 30.4479V28.4479C16.2598 28.4479 14.0413 30.6593 14.0413 33.398H16.0413ZM18.9781 30.4479C20.5879 30.4479 21.9149 31.7746 21.9149 33.398H23.9149C23.9149 30.6764 21.6988 28.4479 18.9781 28.4479V30.4479ZM21.9149 33.398C21.9149 34.3528 21.7269 34.8385 21.513 35.1393C21.2852 35.4598 20.9379 35.7042 20.3318 36.026L21.2696 37.7925C21.9175 37.4485 22.6273 37.0237 23.1431 36.2981C23.6729 35.5529 23.9149 34.6158 23.9149 33.398H21.9149ZM19.8019 36.9578L19.8311 37.5576L21.8287 37.4605L21.7995 36.8607L19.8019 36.9578ZM21.8299 37.509V37.5017H19.8299V37.509H21.8299ZM10.4277 20.5749V14.818H8.4277V20.5749H10.4277ZM10.4277 14.818C10.4277 10.0779 14.2777 6.21343 19 6.21343V4.21343C13.1658 4.21343 8.4277 8.98065 8.4277 14.818H10.4277ZM19 6.21343C23.7228 6.21343 27.5723 10.0711 27.5723 14.818H29.5723C29.5723 8.97284 24.8337 4.21343 19 4.21343V6.21343ZM27.5723 14.818V20.5749H29.5723V14.818H27.5723ZM28.5723 19.5749H9.4277V21.5749H28.5723V19.5749Z" fill="white"/>
</svg>
