<svg width="300" height="300" viewBox="0 0 300 300" fill="none" xmlns="http://www.w3.org/2000/svg">
<path fill-rule="evenodd" clip-rule="evenodd" d="M216 173.617C216 137.166 186.451 107.617 150 107.617C113.549 107.617 84 137.166 84 173.617C84 210.068 113.549 239.617 150 239.617C186.451 239.617 216 210.068 216 173.617ZM90 173.617C90 140.48 116.863 113.617 150 113.617C183.137 113.617 210 140.48 210 173.617C210 206.754 183.137 233.617 150 233.617C116.863 233.617 90 206.754 90 173.617Z" fill="#EED58A"/>
<path d="M205.842 96.3615C231.05 114.039 246.33 142.567 246.33 173.617C246.33 225.985 203.191 268.417 150 268.417C96.8091 268.417 53.6699 225.985 53.6699 173.617C53.6699 142.63 68.8878 114.153 94.0104 96.4654L97.4645 101.371C73.9165 117.95 59.6699 144.61 59.6699 173.617C59.6699 222.649 100.101 262.417 150 262.417C199.899 262.417 240.33 222.649 240.33 173.617C240.33 144.551 226.025 117.843 202.397 101.274L205.842 96.3615Z" fill="#AF873D"/>
<path d="M163.002 31.5829C182.404 31.5829 198.132 47.3111 198.132 66.7129V92.7169H192.132V66.7129C192.132 50.6248 179.09 37.5829 163.002 37.5829H136.998C120.91 37.5829 107.868 50.6248 107.868 66.7129V92.7169H101.868V66.7129C101.868 47.3111 117.596 31.5829 136.998 31.5829H163.002Z" fill="#EED58A"/>
<path d="M147 145.676V201.558H153V145.676H147Z" fill="#AF873D"/>
</svg>
