<svg width="120" height="120" viewBox="0 0 120 120" fill="none" xmlns="http://www.w3.org/2000/svg">
<path d="M88.0966 72.7961L106.574 98.4452L107.739 100.063L105.764 100.335L93.0898 102.082L87.5162 113.333L86.6331 115.115L85.4682 113.503L66.8523 87.732L68.7978 86.3267L86.2482 110.485L91.2218 100.448L91.5039 99.8782L92.1332 99.7915L103.46 98.2296L86.1492 74.199L88.0966 72.7961Z" fill="#AF873D"/>
<path fill-rule="evenodd" clip-rule="evenodd" d="M70.0871 9.98161C64.7308 4.6728 56.0694 4.6728 50.713 9.98161L47.1965 13.467C45.3884 15.259 43.0244 16.3913 40.4876 16.6801L35.5554 17.2414C28.0427 18.0967 22.6382 24.8374 23.4723 32.3187L24.0195 37.2262C24.3005 39.7468 23.7175 42.2877 22.3643 44.4379L19.7306 48.6233C15.7154 55.0036 17.6452 63.413 24.0438 67.4272L28.2425 70.0616C30.4008 71.4157 32.0356 73.4547 32.8823 75.8478L34.5302 80.5056C37.0411 87.6031 44.847 91.342 51.9872 88.8711L56.676 87.2484C59.0878 86.4138 61.7124 86.4138 64.1242 87.2484L68.8129 88.8711C75.953 91.342 83.7587 87.6032 86.27 80.5056L87.9179 75.8477C88.7646 73.4546 90.3993 71.4157 92.5576 70.0616L96.7564 67.4272C103.155 63.413 105.085 55.0036 101.069 48.6232L98.4359 44.4379C97.0827 42.2877 96.4996 39.7468 96.7807 37.2262L97.3279 32.3187C98.162 24.8374 92.7574 18.0967 85.2448 17.2414L80.3126 16.6801C77.7757 16.3913 75.4117 15.259 73.6036 13.467L70.0871 9.98161ZM52.4025 11.6862C56.8233 7.30459 63.9768 7.30459 68.3977 11.6862L71.9142 15.1716C74.1054 17.3434 76.969 18.715 80.0412 19.0647L84.9733 19.626C91.1739 20.332 95.6298 25.8894 94.9426 32.0528L94.3954 36.9603C94.0541 40.0211 94.7621 43.1063 96.4046 45.7162L99.0382 49.9015C102.346 55.1578 100.757 62.0844 95.4809 65.3942L91.2821 68.0286C88.6656 69.6702 86.6827 72.1433 85.6553 75.0472L84.0074 79.7051C81.9369 85.5571 75.4935 88.6433 69.5978 86.6031L64.9091 84.9804C61.9888 83.9698 58.8114 83.9698 55.8911 84.9803L51.2023 86.6031C45.3066 88.6433 38.863 85.557 36.7927 79.7051L35.1449 75.0473C34.1174 72.1433 32.1345 69.6702 29.518 68.0286L25.3193 65.3942C20.0435 62.0844 18.454 55.1578 21.7619 49.9015L24.3956 45.7161C26.038 43.1063 26.746 40.021 26.4047 36.9603L25.8575 32.0528C25.1703 25.8894 29.6262 20.332 35.8269 19.626L40.759 19.0647C43.8311 18.715 46.6947 17.3434 48.886 15.1716L52.4025 11.6862Z" fill="#EED58A"/>
<path fill-rule="evenodd" clip-rule="evenodd" d="M87.1565 47.8162C87.1565 33.1134 75.1758 21.197 60.4 21.197C45.6242 21.197 33.6433 33.1134 33.6433 47.8162C33.6433 62.5189 45.6242 74.4353 60.4 74.4353C75.1758 74.4353 87.1565 62.5189 87.1565 47.8162ZM36.0433 47.8162C36.0433 34.4418 46.9468 23.597 60.4 23.597C73.8532 23.597 84.7565 34.4418 84.7565 47.8162C84.7565 61.1905 73.8532 72.0353 60.4 72.0353C46.9468 72.0353 36.0433 61.1905 36.0433 47.8162Z" fill="#EED58A"/>
<path d="M51.5522 38.7716H69.2478V36.3716H51.5522V38.7716Z" fill="#AF873D"/>
<path d="M51.5522 60.7042H69.2478V58.3042H51.5522V60.7042Z" fill="#AF873D"/>
<path d="M41.7517 53.3932H79.0485V50.9932H41.7517V53.3932Z" fill="#AF873D"/>
<path d="M41.7517 46.0824H79.0485V43.6824H41.7517V46.0824Z" fill="#AF873D"/>
</svg>
