<svg width="300" height="300" viewBox="0 0 300 300" fill="none" xmlns="http://www.w3.org/2000/svg">
<path d="M150.001 102.911C216.733 102.911 271 123.13 271 149.877C271 172.479 230.686 191.078 176.479 195.965L175.94 189.99C227.218 185.367 265 167.935 265 149.877C265 128.06 213.607 108.911 150.001 108.911C86.3934 108.911 35 128.06 35 149.877C35 168.184 71.9655 185.285 123.607 189.727L123.092 195.705C68.53 191.012 29 172.724 29 149.877C29 123.13 83.2675 102.911 150.001 102.911Z" fill="#F3D37E"/>
<path d="M94.9935 41.2198C115.229 30.8071 149.39 58.0575 178.353 105.008L173.246 108.158C145.84 63.7312 113.89 38.244 97.7388 46.5549C81.1342 55.0989 83.4297 98.0213 104.282 147.821L98.7479 150.139C76.7488 97.6007 74.3029 51.8662 94.9935 41.2198Z" fill="#F3D37E"/>
<path d="M104.282 147.821C107.166 154.708 110.361 161.626 113.842 168.505C142.75 225.632 183.029 263.096 202.262 253.199C218.992 244.589 216.524 201.125 195.303 150.943L200.83 148.606C223.21 201.53 225.838 247.814 205.007 258.534C181.345 270.71 138.823 231.16 108.489 171.214C104.943 164.208 101.687 157.159 98.7476 150.138L104.282 147.821Z" fill="#F3D37E"/>
<path d="M207.866 112.246L213.674 113.751C210.636 125.469 206.418 137.833 201.157 150.369L195.625 148.047C200.777 135.77 204.902 123.679 207.866 112.246Z" fill="#F3D37E"/>
<path d="M121.291 105.589C150.315 58.3007 184.685 30.7617 205.008 41.2196C220.606 49.2466 223.204 76.9905 213.674 113.751L207.866 112.246C216.748 77.9861 214.389 52.7949 202.262 46.5546C186.034 38.2036 153.874 63.9712 126.405 108.727L121.291 105.589Z" fill="#F3D37E"/>
<path d="M195.576 148.168L201.205 150.247C192.932 172.646 181.132 193.38 164.432 215.833C147.209 238.544 135.694 249.741 118.214 258.091L117.876 258.228C108.418 261.407 101.191 262.188 95.0604 259.097C86.7985 254.931 82.5204 246.303 81.1221 235.019C78.3489 208.919 84.6907 182.109 98.9068 149.235L104.414 151.617C90.5713 183.627 84.4465 209.52 87.0825 234.333C88.2539 243.783 91.6669 250.666 97.7616 253.739C102.007 255.88 107.936 255.239 115.965 252.54L115.793 252.596L116.486 252.262C132.139 244.601 142.863 234.212 158.762 213.377L159.634 212.23C175.997 190.23 187.518 169.986 195.576 148.168Z" fill="#F3D37E"/>
<path fill-rule="evenodd" clip-rule="evenodd" d="M174.761 124.935C167.655 123.784 160.141 123.251 152.35 123.251C143.103 123.251 134 123.99 125.487 125.201C118.582 126.183 114.357 133.385 116.607 140.104C122.553 157.87 131.371 174.308 141.209 188.501C143.312 191.535 146.65 193.251 150.191 193.251C153.703 193.251 157.011 191.561 159.107 188.561C169.984 172.994 177.948 156.005 183.396 139.762C185.609 133.16 181.525 126.03 174.761 124.935ZM126.332 131.141C134.583 129.967 143.409 129.251 152.35 129.251C159.836 129.251 167.033 129.762 173.802 130.858C176.844 131.35 178.764 134.702 177.707 137.854C172.428 153.594 164.699 170.082 154.189 185.124C153.226 186.503 151.761 187.251 150.191 187.251C148.601 187.251 147.112 186.486 146.14 185.083C136.601 171.321 128.042 155.366 122.296 138.2C121.217 134.974 123.204 131.586 126.332 131.141Z" fill="#AF873D"/>
</svg>
