<svg width="56" height="57" viewBox="0 0 56 57" fill="none" xmlns="http://www.w3.org/2000/svg">
<path d="M53.1479 26.8085C51.5431 25.2175 49.3356 24.2293 46.8969 24.2293C44.4581 24.2293 42.1245 25.2736 40.5057 26.9487C38.8939 25.2736 36.6303 24.2293 34.1145 24.2293C31.5987 24.2293 29.6435 25.1404 28.0597 26.6193C26.4759 25.1334 24.3455 24.2293 22.0049 24.2293C19.6642 24.2293 17.2185 25.2736 15.6067 26.9557C13.9949 25.2736 11.7243 24.2293 9.20848 24.2293C6.69265 24.2293 4.73044 25.1404 3.13965 26.6263" stroke="white" stroke-width="2"/>
<path fill-rule="evenodd" clip-rule="evenodd" d="M28.0945 1.90636C24.7097 1.90636 21.437 2.57219 18.3465 3.87582C15.3612 5.1374 12.6842 6.94566 10.3856 9.24453C8.08701 11.5434 6.27897 14.2208 5.01756 17.2065C3.70708 20.2974 3.04834 23.5704 3.04834 26.9557V27.215L3.22354 27.4042L27.5689 54.5562L28.0735 55.1239L28.5781 54.5562L52.9585 27.4042L53.1337 27.208V26.9487C53.1337 23.5634 52.4679 20.2903 51.1645 17.1995C49.9031 14.2137 48.095 11.5364 45.7964 9.23753C43.4978 6.93865 40.8208 5.13039 37.8355 3.86881C34.745 2.55818 31.4723 1.89935 28.0875 1.89935V1.89935L28.0945 1.90636Z" stroke="white" stroke-width="2"/>
<path d="M28.0902 54.7244L28.0802 26.6193" stroke="white" stroke-width="2"/>
<path d="M15.6135 26.9557L28.0735 54.7244" stroke="white" stroke-width="2"/>
<path d="M40.5125 26.9487L28.0735 54.7244" stroke="white" stroke-width="2"/>
<path d="M28.0315 7.3452C28.0315 7.3452 33.1823 6.99476 39.139 10.2889" stroke="white" stroke-width="2" stroke-linecap="round"/>
</svg>
