<svg width="120" height="120" viewBox="0 0 120 120" fill="none" xmlns="http://www.w3.org/2000/svg">
<path fill-rule="evenodd" clip-rule="evenodd" d="M84.9658 29.695C80.6233 25.3525 73.5724 25.3656 69.2171 29.721C64.8617 34.0763 64.8486 41.1272 69.1911 45.4697C73.5334 49.812 80.5842 49.7988 84.9395 45.4434C89.2949 41.0881 89.3081 34.0373 84.9658 29.695ZM70.9141 31.418C74.3337 27.9985 79.8649 27.9882 83.2687 31.3921C86.6723 34.7957 86.662 40.3269 83.2425 43.7464C79.823 47.1659 74.2917 47.1762 70.8881 43.7726C67.4843 40.3688 67.4946 34.8376 70.9141 31.418Z" fill="#AF873D"/>
<path fill-rule="evenodd" clip-rule="evenodd" d="M106.034 13.1861C106.097 10.9581 104.277 9.13818 102.049 9.20156L89.7099 9.55059C78.9586 9.85462 68.6295 13.3379 60.1739 19.5985L59.4882 20.115C57.6708 21.5073 55.9441 23.0201 54.3196 24.6445L42.1778 36.7856L24.6482 34.6268C24.1638 34.5675 23.6805 34.7347 23.3366 35.0787L4.89893 53.5163L4.81609 53.6055C4.10852 54.4265 4.42182 55.7263 5.46275 56.1142L27.5354 64.356L24.555 88.9224L24.5451 89.0391C24.4984 90.0056 25.3339 90.7988 26.3126 90.6804L50.8786 87.6992L59.1214 109.773C59.5234 110.852 60.9064 111.149 61.719 110.336L80.1567 91.8988L80.2545 91.7916C80.5318 91.4582 80.6619 91.0232 80.6087 90.5881L78.4482 73.0576L90.5911 60.916C92.4177 59.0893 94.1038 57.1322 95.6369 55.0614C101.897 46.6059 105.381 36.2767 105.685 25.5255L106.034 13.1861ZM89.7777 11.9496L102.117 11.6006C102.967 11.5764 103.659 12.2684 103.635 13.1181L103.286 25.4576C102.995 35.7242 99.6725 45.5776 93.708 53.6333C92.2454 55.6091 90.6368 57.4761 88.894 59.2189L76.4701 71.6428L76.3722 71.7501C76.0949 72.0835 75.9648 72.5185 76.0181 72.9535L78.177 90.484L60.9234 107.738L52.7968 85.9753L52.4662 85.09L51.5281 85.2038L27.0634 88.1712L30.0316 63.7072L30.1454 62.7691L29.2601 62.4385L7.4962 54.312L24.7506 37.0576L42.2809 39.2172C42.7648 39.2764 43.2485 39.1098 43.5928 38.7655L56.0167 26.3416C57.7603 24.598 59.6273 22.9893 61.602 21.5274C69.6577 15.5628 79.5112 12.24 89.7777 11.9496Z" fill="#EED58A"/>
<path d="M34.8003 52.5016L37.8533 54.2194C47.3131 59.5417 55.1631 67.3082 60.5852 76.7098L62.7275 80.424L60.6485 81.6231L58.5062 77.9089C53.2992 68.8804 45.7609 61.4222 36.6764 56.311L33.6234 54.5932L34.8003 52.5016Z" fill="#AF873D"/>
</svg>
