<svg width="55" height="54" viewBox="0 0 55 54" fill="none" xmlns="http://www.w3.org/2000/svg">
<path d="M36.9848 20.0144C36.9848 20.0144 37.2073 13 27.4182 13C17.6292 13 18.1483 20.7387 18.1483 20.7387C18.1483 20.7387 17.8517 27.1432 28.8273 27.2957C39.7287 27.4482 36.5769 37.6648 36.5769 37.6648C36.5769 37.6648 34.278 43.4212 26.1575 41.6676C21.3743 40.6383 19.0382 37.8936 18 34.6151" stroke="white" stroke-width="2" stroke-linecap="round"/>
<path d="M26.5 8V13" stroke="white" stroke-width="2" stroke-linecap="round"/>
<path d="M26.5 42V47" stroke="white" stroke-width="2" stroke-linecap="round"/>
<path d="M20 2C9.0098 5.35818 1 15.5065 1 27.5C1 39.4935 9.0098 49.6418 20 53" stroke="white" stroke-width="2" stroke-linecap="round"/>
<path d="M35 53C45.9713 49.7453 54 39.3453 54 27C54 14.6547 45.9713 4.25468 35 1" stroke="white" stroke-width="2" stroke-linecap="round"/>
</svg>
