<svg width="300" height="300" viewBox="0 0 300 300" fill="none" xmlns="http://www.w3.org/2000/svg">
<path d="M273.795 203.5L150 257.15L26.2051 203.5L150 149.849L273.795 203.5ZM41.291 203.5L149.999 250.609L258.705 203.498L149.999 156.387L41.291 203.5Z" fill="#87672D"/>
<path d="M273.795 167.833L150 221.484L26.2051 167.833L150 114.183L273.795 167.833ZM41.291 167.833L149.999 214.943L258.705 167.831L149.999 120.721L41.291 167.833Z" fill="#AF873D"/>
<path d="M273.795 132.167L150 185.817L26.2051 132.167L150 78.5161L273.795 132.167ZM41.291 132.167L149.999 179.276L258.705 132.165L149.999 85.0542L41.291 132.167Z" fill="#B09C62"/>
<path d="M273.795 96.4999L150 150.15L26.2051 96.4999L150 42.8495L273.795 96.4999ZM41.291 96.4999L149.999 143.609L258.705 96.4979L149.999 49.3876L41.291 96.4999Z" fill="#EED58A"/>
</svg>
