<svg width="94" height="68" viewBox="0 0 94 68" fill="none" xmlns="http://www.w3.org/2000/svg">
<ellipse cx="4.61452" cy="33.2283" rx="3.4636" ry="3.50161" transform="rotate(-88.1 4.61452 33.2283)" stroke="white" stroke-width="2"/>
<circle cx="52.0586" cy="4.5" r="3.5" stroke="white" stroke-width="2"/>
<circle cx="68.0586" cy="23.5" r="3.5" stroke="white" stroke-width="2"/>
<ellipse cx="46.4453" cy="62.6076" rx="3.46737" ry="3.49787" transform="rotate(-71.6 46.4453 62.6076)" stroke="white" stroke-width="2"/>
<circle cx="25.0586" cy="46.5" r="2.5" stroke="white" stroke-width="2"/>
<circle cx="25.5586" cy="10" r="3" stroke="white" stroke-width="2"/>
<circle cx="64.0586" cy="59.5" r="2.5" stroke="white" stroke-width="2"/>
<circle cx="89.0586" cy="43.5" r="3.5" stroke="white" stroke-width="2"/>
<path d="M63.049 36L67.5586 44.1806L62.5586 54.0393L63.3002 58" stroke="white" stroke-width="2"/>
<path d="M58.5586 54L49.666 54.2733L47.5586 60" stroke="white" stroke-width="2"/>
<path d="M33.4154 41H29.1753L26.5586 33.5547L32.4584 23L44.1852 23.161L48.5586 30.086" stroke="white" stroke-width="2"/>
<path d="M50.5586 10L44.5586 23" stroke="white" stroke-width="2"/>
<path d="M66.5586 27L62.1952 34.2453H50.409L44.5586 44.8034L48.5442 51" stroke="white" stroke-width="2"/>
<path d="M82.5586 43.975L66.5586 44.025" stroke="white" stroke-width="2"/>
<path d="M7.55859 32.95L23.5586 33.05" stroke="white" stroke-width="2"/>
<path d="M28.5586 16L32.5586 24" stroke="white" stroke-width="2"/>
<path d="M25.5586 45L28.5586 40" stroke="white" stroke-width="2"/>
<path d="M20.5586 36L23.5586 33L20.5586 30" stroke="white" stroke-width="2"/>
<path d="M67.5586 37.3801L63.6275 36L62.5586 40" stroke="white" stroke-width="2"/>
<path d="M32.5586 17.3801L28.6394 16L27.5586 20" stroke="white" stroke-width="2"/>
<path d="M79.5586 46L82.5586 43.5L79.5586 41" stroke="white" stroke-width="2"/>
<path d="M44.5586 49.9625L48.777 51L49.5586 47" stroke="white" stroke-width="2"/>
<path d="M44.5586 29.9395L48.798 31L49.5586 27" stroke="white" stroke-width="2"/>
<path d="M57.1782 57L59.5586 54.472L56.5586 52" stroke="white" stroke-width="2"/>
<path d="M50.5586 14L49.7399 10L46.5586 11.3503" stroke="white" stroke-width="2"/>
</svg>
