<svg width="58" height="58" viewBox="0 0 58 58" fill="none" xmlns="http://www.w3.org/2000/svg">
<circle cx="29" cy="29" r="28" stroke="white" stroke-width="2"/>
<path d="M49.4125 47.7955L8.71387 9.56567" stroke="white" stroke-width="2"/>
<path d="M1.97009 22.1616L16.9954 10.2281L29.9464 5.43262L40.2 7.97234C40.2 7.97234 40.1369 10.5752 38.2281 11.6557C36.3194 12.7363 35.6253 12.3261 34.04 11.7819" stroke="white" stroke-width="2" stroke-linecap="round" stroke-linejoin="round"/>
<path d="M20.7026 14.3296L30.3252 9.84167L42.8029 16.6958C42.8029 16.6958 40.9809 22.2327 36.5483 19.3932C32.1156 16.5538 30.5145 15.4574 30.5145 15.4574" stroke="white" stroke-width="2" stroke-linecap="round" stroke-linejoin="round"/>
<path d="M25.9476 18.6992L29.1577 24.0626C29.1577 24.0626 31.4135 27.6513 35.6332 24.7014L30.4276 15.3707L19.3459 22.6113L21.3177 29.5995L26.8228 32.3624C26.8228 32.3624 30.096 33.2221 31.2712 35.8881C32.4464 38.554 30.8926 40.6835 30.8926 40.6835C30.8926 40.6835 27.2881 38.5303 26.3259 38.2464C24.2278 37.6311 19.5904 37.0609 18.7228 37.2344C16.609 37.6524 12.9729 37.5972 10.5278 33.8113L3.19263 38.6226" stroke="white" stroke-width="2" stroke-linecap="round" stroke-linejoin="round"/>
<path d="M45.1401 27.1859V28.1087" stroke="white" stroke-width="1.5" stroke-linecap="square"/>
<path d="M45.1401 33.1251V34.0795" stroke="white" stroke-width="1.5" stroke-linecap="square"/>
<path d="M43.2524 32.1707V32.1707C43.2524 32.6755 43.6626 33.1251 44.2068 33.1251H45.7606C46.4626 33.1251 46.9989 32.5572 46.9989 31.8868V31.8868C46.9989 31.1848 46.431 30.6485 45.7606 30.6485H44.5223C43.8203 30.6485 43.284 30.0806 43.284 29.4102V29.4102C43.284 28.7082 43.8519 28.1719 44.5223 28.1719H46.0761C46.5809 28.1719 47.0305 28.582 47.0305 29.1262V29.1262" stroke="white" stroke-width="1.5" stroke-linecap="square"/>
<circle cx="45.0508" cy="30.4355" r="6.0969" stroke="white" stroke-width="1.5" stroke-linecap="round" stroke-linejoin="round"/>
<path d="M50.3888 34.0187C52.4419 33.1554 53.9454 31.1944 54.1114 28.8208C54.3463 25.4618 51.8137 22.5483 48.4547 22.3134C46.4085 22.1703 44.5276 23.0542 43.3169 24.5263" stroke="white" stroke-width="1.5" stroke-linecap="round" stroke-linejoin="round"/>
</svg>
