<svg width="29" height="29" viewBox="0 0 29 29" fill="none" xmlns="http://www.w3.org/2000/svg">
<path fill-rule="evenodd" clip-rule="evenodd" d="M14.5 29C22.5081 29 29 22.5081 29 14.5C29 6.49187 22.5081 0 14.5 0C6.49187 0 0 6.49187 0 14.5C0 22.5081 6.49187 29 14.5 29ZM14.7618 10.9883C13.3796 11.5637 10.6271 12.7497 6.49235 14.5345C5.83079 14.8046 5.47638 15.0629 5.44094 15.3213C5.38863 15.7581 5.9387 15.9278 6.68074 16.1567C6.77649 16.1862 6.87544 16.2167 6.9767 16.2489C7.70914 16.4838 8.67785 16.7539 9.18583 16.7656C9.64656 16.7773 10.1545 16.5895 10.7216 16.202C14.5846 13.6069 16.5693 12.2917 16.6992 12.2682C16.7937 12.2447 16.9119 12.2212 16.9946 12.2917C17.0773 12.3621 17.0773 12.5031 17.0654 12.5383C17.0091 12.7717 14.7045 14.8984 13.6557 15.8661C13.3856 16.1154 13.1987 16.2878 13.1552 16.3311C13.0444 16.4445 12.9316 16.5518 12.8231 16.655C12.145 17.3002 11.6361 17.7843 12.848 18.5739C13.399 18.9355 13.8433 19.2368 14.281 19.5336C14.8098 19.8923 15.3288 20.2442 16.014 20.6876C16.1755 20.793 16.33 20.9023 16.4808 21.0089C17.0693 21.425 17.6003 21.8005 18.2586 21.7444C18.6366 21.7092 19.0265 21.3569 19.2273 20.3001C19.6999 17.8107 20.6213 12.3974 20.834 10.1663C20.8576 9.97842 20.834 9.73182 20.8103 9.6144C20.7867 9.49697 20.7513 9.34432 20.6095 9.2269C20.4323 9.08599 20.1724 9.0625 20.0543 9.0625C19.5227 9.07424 18.6957 9.35606 14.7618 10.9883Z" fill="#6BD1C3"/>
</svg>
