<svg width="24" height="24" viewBox="0 0 24 24" fill="none" xmlns="http://www.w3.org/2000/svg">
<path d="M22.05 1.577C21.764 1.318 21.358 1.232 20.988 1.354L1.635 7.89C1.224 8.029 0.948 8.404 0.938 8.836C0.928 9.268 1.185 9.656 1.589 9.814L7.05 11.86L8.57 19.04C8.652 19.414 8.932 19.714 9.299 19.822C9.389 19.849 9.48 19.863 9.57 19.863C9.856 19.863 10.133 19.737 10.32 19.512L13.02 16.26L17.73 19.92C17.94 20.082 18.195 20.168 18.455 20.168C18.575 20.168 18.696 20.148 18.813 20.109C19.176 19.986 19.445 19.683 19.52 19.31L22.46 2.58C22.525 2.212 22.336 1.836 22.05 1.577ZM9.1 12.96L3.74 10.95L18.74 5.41L9.1 12.96ZM10.2 17.56L9.27 13.37L16.61 7.61L10.2 17.56ZM18.33 18.35L13.35 14.48L20.65 3.46L18.33 18.35Z" fill="currentColor"/>
</svg>
