<svg width="146" height="44" viewBox="0 0 146 44" fill="none" xmlns="http://www.w3.org/2000/svg">
<path fill-rule="evenodd" clip-rule="evenodd" d="M121.938 11.826C117.373 12.9159 113.451 9.61185 113.451 5H99V41H146V5H126.984C127.088 8.10899 126.503 10.7361 121.938 11.826ZM104.505 15.2103H108.336L111.031 29.2065C111.031 29.2065 114.254 15.2218 114.254 15.2103H117.958L120.837 29.3212L123.876 15.2103H127.661L122.844 35.9751H118.841L116.031 21.979C116.031 21.979 112.992 35.9751 112.992 35.9866H109.15L104.505 15.2103ZM127.099 35.9751H130.941L132.019 31.4551C133.527 31.3571 135.069 31.373 136.61 31.3889H136.61H136.61C137.414 31.3973 138.217 31.4056 139.015 31.3977L140.288 35.9751H144.303L138.339 15.2103H132.1C132.1 15.1989 127.099 35.9751 127.099 35.9751ZM134.156 20.5294H135.793L137.582 27.5882H132.672L134.156 20.5294Z" fill="white"/>
<path fill-rule="evenodd" clip-rule="evenodd" d="M39.9498 20.855L41.7131 21.9725C41.8917 22.0855 42 22.2855 42 22.5008C42 22.7161 41.8913 22.9162 41.7127 23.0287L39.9494 24.1462C39.9346 24.3216 39.9177 24.4975 39.8993 24.6721L41.4145 26.1194C41.5686 26.2661 41.6376 26.4834 41.5959 26.6946C41.5558 26.9062 41.4105 27.0799 41.2135 27.1555L39.2765 27.8971C39.2279 28.0688 39.177 28.2393 39.1248 28.409L40.3331 30.1275C40.4563 30.3025 40.4815 30.5297 40.4013 30.7281C40.321 30.9274 40.1461 31.0695 39.9382 31.1036L37.8957 31.4438C37.8162 31.6024 37.734 31.7585 37.6501 31.9142L38.5084 33.8422C38.5963 34.0382 38.5783 34.2662 38.4611 34.4453C38.3443 34.6248 38.1445 34.7296 37.9354 34.721L35.8624 34.6466C35.7556 34.7847 35.6465 34.9198 35.5357 35.0542L36.0112 37.1219C36.0594 37.3314 35.9988 37.5504 35.8495 37.7028C35.7014 37.856 35.4864 37.9172 35.2813 37.8679L33.2624 37.3811C33.1316 37.4953 32.9988 37.6058 32.8648 37.7155L32.937 39.8383C32.9446 40.0536 32.8427 40.2569 32.6677 40.3769C32.4932 40.4964 32.2705 40.5145 32.0791 40.425L30.1954 39.5462C30.0433 39.6312 29.8909 39.7163 29.7368 39.798L29.4037 41.8883C29.37 42.1007 29.2311 42.2811 29.0369 42.3628C28.8431 42.4454 28.6208 42.4187 28.4502 42.2934L26.7717 41.0556C26.6059 41.1094 26.4394 41.162 26.2717 41.2113L25.5474 43.194C25.4739 43.3953 25.3038 43.544 25.0971 43.5855C24.8913 43.6282 24.6786 43.5575 24.5353 43.3998L23.122 41.8481C22.9514 41.8682 22.7801 41.885 22.6083 41.9007L21.5169 43.7058C21.4065 43.8883 21.2111 44 21.0008 44C20.7905 44 20.5951 43.8878 20.4852 43.7058L19.3937 41.9007C19.2219 41.885 19.0502 41.8682 18.8796 41.8481L17.4659 43.3998C17.3226 43.5575 17.1104 43.6282 16.9041 43.5855C16.6974 43.5444 16.5273 43.3953 16.4539 43.194L15.7295 41.2113C15.5618 41.162 15.3953 41.1094 15.2295 41.0556L13.5514 42.2934C13.3808 42.4187 13.1581 42.4454 12.9643 42.3628C12.7701 42.2811 12.6312 42.1011 12.5975 41.8883L12.2644 39.798C12.11 39.7163 11.9575 39.6325 11.8058 39.5462L9.92215 40.425C9.73074 40.5145 9.50762 40.4964 9.33347 40.3769C9.15851 40.2569 9.05618 40.0532 9.06421 39.8383L9.13644 37.7155C9.00241 37.6062 8.86958 37.4953 8.73836 37.3811L6.7195 37.8679C6.51445 37.9172 6.29896 37.856 6.15088 37.7028C6.00161 37.5504 5.94101 37.3314 5.98917 37.1219L6.46469 35.0542C6.35393 34.9198 6.24518 34.7847 6.13724 34.6466L4.06501 34.721C3.85594 34.7296 3.6565 34.6248 3.53933 34.4453C3.42215 34.2662 3.40409 34.0382 3.49157 33.8422L4.35032 31.9142C4.26605 31.7585 4.18419 31.6024 4.10433 31.4438L2.0622 31.1036C1.85474 31.0695 1.67937 30.9274 1.59872 30.7281C1.51806 30.5297 1.54414 30.3025 1.66693 30.1275L2.8752 28.409C2.82263 28.2393 2.77167 28.0688 2.72352 27.8971L0.786116 27.1555C0.589486 27.0799 0.444623 26.9062 0.403692 26.6946C0.362761 26.4838 0.43138 26.2661 0.585072 26.1194L2.10072 24.6721C2.08186 24.4975 2.06501 24.322 2.05056 24.1462L0.287319 23.0287C0.108748 22.9162 0 22.7165 0 22.5008C0 22.2851 0.108748 22.0855 0.287319 21.9725L2.05056 20.855C2.06501 20.6796 2.08186 20.5038 2.10072 20.3292L0.585072 18.8822C0.43138 18.7351 0.362761 18.5178 0.403692 18.3067C0.444623 18.0951 0.589486 17.9209 0.786116 17.8457L2.72352 17.1042C2.77167 16.9324 2.82263 16.7619 2.8752 16.5923L1.66693 14.8742C1.54454 14.6996 1.51846 14.4724 1.59872 14.2731C1.67937 14.0743 1.85433 13.9321 2.0618 13.8976L4.10433 13.5574C4.18419 13.3989 4.26685 13.2428 4.35032 13.0879L3.49157 11.159C3.40449 10.9626 3.42215 10.7342 3.53933 10.5559C3.6561 10.3768 3.85594 10.2741 4.06501 10.2803L6.13804 10.3542C6.24518 10.217 6.35433 10.0814 6.46469 9.94748L5.98917 7.88018C5.94101 7.67025 6.00161 7.45045 6.15088 7.29803C6.29936 7.14603 6.51445 7.08358 6.7195 7.13247L8.73836 7.61971C8.86958 7.50632 9.00241 7.39417 9.13644 7.28448L9.06421 5.16213C9.05618 4.94726 9.15851 4.74308 9.33347 4.62394C9.50762 4.50397 9.73074 4.48549 9.92215 4.57505L11.8058 5.45423C11.9579 5.36836 12.1104 5.28414 12.2644 5.20239L12.5975 3.11085C12.6312 2.89886 12.7705 2.71892 12.9643 2.63675C13.1585 2.55376 13.3808 2.58047 13.5514 2.70659L15.2303 3.9436C15.3961 3.89019 15.5622 3.83802 15.7299 3.78872L16.4543 1.80523C16.5277 1.6031 16.6978 1.4552 16.9045 1.41288C17.1104 1.37139 17.323 1.44164 17.4663 1.59858L18.88 3.15111C19.0506 3.1318 19.2223 3.11413 19.3941 3.09976L20.4856 1.29415C20.5955 1.11134 20.7909 1 21.0012 1C21.2115 1 21.4069 1.11134 21.5173 1.29415L22.6087 3.09976C22.7801 3.11413 22.9518 3.1318 23.1224 3.15111L24.5357 1.59858C24.679 1.44164 24.8913 1.37139 25.0975 1.41288C25.3042 1.45479 25.4743 1.6031 25.5478 1.80523L26.2721 3.78872C26.4398 3.83802 26.6059 3.88978 26.7713 3.9436L28.4506 2.70659C28.6212 2.58088 28.8435 2.55417 29.0373 2.63675C29.2315 2.71892 29.3704 2.89886 29.4041 3.11085L29.7372 5.20239C29.8913 5.28414 30.0437 5.36877 30.1958 5.45423L32.0795 4.57505C32.2709 4.4859 32.4928 4.50397 32.6681 4.62394C32.8431 4.74308 32.9454 4.94726 32.9374 5.16213L32.8648 7.28448C32.9992 7.39417 33.132 7.50632 33.2628 7.61971L35.2817 7.13247C35.4868 7.08317 35.7018 7.14603 35.8499 7.29803C35.9992 7.45045 36.0598 7.67025 36.0116 7.88018L35.5353 9.94748C35.6465 10.081 35.7556 10.217 35.8628 10.3542L37.9358 10.2803C38.1469 10.272 38.3447 10.3768 38.4615 10.5559C38.5787 10.7342 38.5967 10.9626 38.5088 11.159L37.6505 13.0879C37.7339 13.2428 37.8166 13.3989 37.8961 13.5574L39.9386 13.8976C40.1461 13.9325 40.3214 14.0747 40.4017 14.2731C40.4819 14.4724 40.4567 14.6996 40.3335 14.8742L39.1252 16.5923C39.1774 16.7619 39.2283 16.9324 39.2769 17.1042L41.2139 17.8457C41.4109 17.9209 41.5558 18.0951 41.5963 18.3067C41.638 18.5174 41.569 18.7351 41.4149 18.8822L39.8997 20.3292C39.9181 20.5038 39.935 20.6792 39.9498 20.855ZM28.9547 35.428C28.8102 36.1194 29.2384 36.799 29.9117 36.9477C30.5847 37.0952 31.2484 36.6552 31.3929 35.965C31.5373 35.2748 31.1083 34.594 30.435 34.4465C29.762 34.2978 29.0987 34.7374 28.9547 35.428ZM29.3126 32.7991C28.6982 32.6644 28.0939 33.0645 27.9623 33.6947L27.3363 36.6856C25.4045 37.5832 23.2592 38.082 21 38.082C18.689 38.082 16.4972 37.5586 14.5309 36.6227L13.9053 33.6319C13.7737 33.0025 13.1693 32.6015 12.5554 32.7367L9.97633 33.3036C9.49759 32.7991 9.05217 32.2617 8.64286 31.6944H21.1918C21.3339 31.6944 21.4286 31.6681 21.4286 31.5358V26.9912C21.4286 26.8589 21.3339 26.8326 21.1918 26.8326H17.5217V23.9519H21.4912C21.8535 23.9519 23.4286 24.0579 23.9322 26.119C23.9885 26.3454 24.0689 26.754 24.1597 27.2158C24.3233 28.047 24.5208 29.0507 24.673 29.4751C24.9089 30.2154 25.8696 31.6944 26.8933 31.6944H33.1465C33.2175 31.6944 33.2933 31.6862 33.3732 31.6714C32.9394 32.2749 32.4635 32.8459 31.951 33.3796L29.3126 32.7991ZM10.4751 35.9038C10.62 36.5944 11.2829 37.034 11.9563 36.8852C12.6292 36.7373 13.0578 36.057 12.9137 35.3668C12.7693 34.6762 12.1059 34.2366 11.4326 34.3841C10.7592 34.5328 10.3311 35.2119 10.4751 35.9038ZM7.19583 17.1222C7.47512 17.7676 7.19101 18.524 6.5614 18.8095C5.93178 19.0959 5.19502 18.8046 4.91573 18.1588C4.63644 17.5129 4.92055 16.7578 5.55016 16.4715C6.18018 16.1855 6.91653 16.4764 7.19583 17.1222ZM8.41934 19.4508L5.73274 20.673C5.67496 21.2272 5.64486 21.7913 5.64486 22.362C5.64486 23.857 5.84912 25.3035 6.22994 26.674H10.6204V16.6317H8.44422L8.99759 17.9127C9.25241 18.5014 8.99318 19.1899 8.41934 19.4508ZM17.5225 19.6973V16.7377H22.7047C22.9723 16.7377 24.5947 17.0544 24.5947 18.2964C24.5947 19.3276 23.3503 19.6973 22.327 19.6973H17.5225ZM36.3134 23.5291C36.3415 23.1434 36.3555 22.7547 36.3555 22.362C36.3555 21.8349 36.3299 21.3148 36.2809 20.8L33.4486 19.512C32.8752 19.2512 32.616 18.5626 32.87 17.9739L34.3411 14.5722C32.1441 10.6352 28.3319 7.76556 23.8291 6.90733L21.6802 9.01161C21.2259 9.45654 20.5068 9.43928 20.0726 8.97381L18.1521 6.91103C14.7652 7.56179 11.7709 9.35013 9.5614 11.8747H25.8547C26.264 11.8747 27.7813 12.06 29.1517 12.9848C30.1284 13.6458 31.5614 14.9937 31.5614 17.1337C31.5614 19.1156 29.9551 20.5962 28.4113 21.5999L28.4947 21.6671C29.6906 22.6316 30.4537 23.247 30.9157 25.9078C31.0253 26.4099 31.9137 26.8458 32.7151 26.7533C33.5566 26.6568 34.5169 26.2776 34.5169 24.534V23.7933C34.5169 23.6351 34.5803 23.5291 34.738 23.5291H36.3134ZM20.0734 5.15637C20.571 4.66831 21.3604 4.68762 21.8367 5.19787C22.3122 5.70935 22.2941 6.51828 21.7953 7.00593C21.2978 7.494 20.5084 7.4751 20.0321 6.96403C19.557 6.45337 19.575 5.64444 20.0734 5.15637ZM36.3174 16.5339C35.6878 16.2476 34.951 16.5388 34.6721 17.1843C34.3933 17.8305 34.6774 18.586 35.3062 18.872C35.9362 19.1583 36.673 18.867 36.9518 18.2212C37.2311 17.5758 36.947 16.8199 36.3174 16.5339Z" fill="white"/>
<path d="M61.7409 0L54 13.4839H69.5L61.7409 0V0Z" fill="white"/>
<path opacity="0.6" d="M61.7409 26.9678L69.5 13.4839H54L61.7409 26.9678V26.9678Z" fill="white"/>
<path opacity="0.3" d="M77.2409 0L69.5 13.4839H85L77.2409 0V0Z" fill="white"/>
<path opacity="0.6" d="M69.5 13.4839L77.25 0H61.75L69.5 13.4839V13.4839Z" fill="white"/>
<path opacity="0.6" d="M85 30.5161H69.5L77.2591 17.0322L85 30.5161Z" fill="white"/>
<path d="M77.2591 44L69.5 30.5161H85L77.2591 44V44Z" fill="white"/>
<path opacity="0.3" d="M61.7591 44L54 30.5161H69.5L61.7591 44V44Z" fill="white"/>
<path opacity="0.6" d="M69.5 30.5161L77.25 44H61.75L69.5 30.5161V30.5161Z" fill="white"/>
</svg>
