<svg width="109" height="120" viewBox="0 0 109 120" fill="none" xmlns="http://www.w3.org/2000/svg">
<path d="M7.44755 119.674V1.27502H1.2749V119.425" stroke="#8C7752" stroke-width="2.55"/>
<path fill-rule="evenodd" clip-rule="evenodd" d="M22.1201 9.54496L28.8747 10.9269C36.474 12.4819 44.1717 12.678 51.8025 11.5095L77.5696 7.56548C85.1355 6.40696 92.7676 6.5894 100.304 8.10844L107.432 9.54496V83.521L100.304 82.0844C92.7676 80.5654 85.1355 80.383 77.5696 81.5409L51.8025 85.4855C44.1717 86.654 36.474 86.4579 28.8747 84.9029L22.1201 83.521V9.54496Z" stroke="#8C7752" stroke-width="2.55"/>
<path fill-rule="evenodd" clip-rule="evenodd" d="M88.3368 35.6025L71.8415 37.6117V21.5203L57.693 23.3192V39.3349L41.2153 41.3423V55.5629L57.693 53.486V70.1627L71.8415 68.3631V51.7026L88.3368 49.6239V35.6025Z" stroke="#EED58A" stroke-width="2.55"/>
</svg>
