<svg width="125" height="125" viewBox="0 0 125 125" fill="none" xmlns="http://www.w3.org/2000/svg">
<path d="M106.652 106.651L92.1694 92.1693" stroke="#87672D" stroke-width="2.55"/>
<path d="M32.7805 32.7806L18.2983 18.2985" stroke="#87672D" stroke-width="2.55"/>
<path d="M18.2983 106.651L32.7805 92.1693" stroke="#87672D" stroke-width="2.55"/>
<path d="M92.1694 32.7806L106.652 18.2985" stroke="#87672D" stroke-width="2.55"/>
<path d="M120.194 38.5668L101.272 46.4044" stroke="#87672D" stroke-width="2.55"/>
<path d="M23.6776 78.5454L4.75586 86.383" stroke="#87672D" stroke-width="2.55"/>
<path d="M86.383 120.194L78.5454 101.273" stroke="#87672D" stroke-width="2.55"/>
<path d="M46.4045 23.6774L38.5669 4.75574" stroke="#87672D" stroke-width="2.55"/>
<path d="M38.5669 120.194L46.4045 101.273" stroke="#87672D" stroke-width="2.55"/>
<path d="M78.5454 23.6774L86.383 4.75574" stroke="#87672D" stroke-width="2.55"/>
<path d="M4.75586 38.5668L23.6776 46.4044" stroke="#87672D" stroke-width="2.55"/>
<path d="M101.272 78.5454L120.194 86.383" stroke="#87672D" stroke-width="2.55"/>
<path d="M62.4752 0V20.4808" stroke="#87672D" stroke-width="2.55"/>
<path d="M62.4752 104.455V124.936" stroke="#87672D" stroke-width="2.55"/>
<path d="M124.95 62.475H104.469" stroke="#87672D" stroke-width="2.55"/>
<path d="M20.4808 62.901H0" stroke="#87672D" stroke-width="2.55"/>
<path d="M66.9551 73.2904L72.3904 86.4124" stroke="#EED58A" stroke-width="2.55"/>
<path d="M57.9949 51.6596L52.5596 38.5376" stroke="#EED58A" stroke-width="2.55"/>
<path d="M66.9551 51.6596L72.3904 38.5376" stroke="#EED58A" stroke-width="2.55"/>
<path d="M57.9949 73.2904L52.5596 86.4124" stroke="#EED58A" stroke-width="2.55"/>
<path d="M73.2905 66.9548L86.4125 72.3902" stroke="#EED58A" stroke-width="2.55"/>
<path d="M51.6596 57.9951L38.5376 52.5598" stroke="#EED58A" stroke-width="2.55"/>
<path d="M70.7529 54.1972L80.7961 44.1541" stroke="#EED58A" stroke-width="2.55"/>
<path d="M54.1975 70.7527L44.1543 80.7959" stroke="#EED58A" stroke-width="2.55"/>
<path d="M70.7529 70.7527L80.7961 80.7959" stroke="#EED58A" stroke-width="2.55"/>
<path d="M54.1975 54.1972L44.1543 44.1541" stroke="#EED58A" stroke-width="2.55"/>
<path d="M73.2905 57.9951L86.4125 52.5598" stroke="#EED58A" stroke-width="2.55"/>
<path d="M51.6596 66.9548L38.5376 72.3902" stroke="#EED58A" stroke-width="2.55"/>
<path d="M62.4752 50.7684V36.5654" stroke="#EED58A" stroke-width="2.55"/>
<path d="M62.4752 74.1815V88.3845" stroke="#EED58A" stroke-width="2.55"/>
<path d="M74.1816 62.475H88.3847" stroke="#EED58A" stroke-width="2.55"/>
<path d="M50.7684 62.475H36.5654" stroke="#EED58A" stroke-width="2.55"/>
<circle cx="62.4749" cy="62.475" r="10.7067" stroke="#EED58A" stroke-width="2.55"/>
</svg>
