<svg width="122" height="77" viewBox="0 0 122 77" fill="none" xmlns="http://www.w3.org/2000/svg">
<path d="M40.4352 17.9276V42.5021" stroke="#EED58A" stroke-width="2.55"/>
<path d="M53.9952 17.9276V42.5021" stroke="#EED58A" stroke-width="2.55"/>
<path d="M67.5548 17.9276V42.5021" stroke="#EED58A" stroke-width="2.55"/>
<path d="M81.1144 17.9276V42.5021" stroke="#EED58A" stroke-width="2.55"/>
<path d="M44.4327 60.1425V76.925" stroke="#AF873D" stroke-width="2.55"/>
<path d="M55.3273 60.1425V76.925" stroke="#AF873D" stroke-width="2.55"/>
<path d="M66.2223 60.1425V76.925" stroke="#AF873D" stroke-width="2.55"/>
<path d="M77.1173 60.1425V76.925" stroke="#AF873D" stroke-width="2.55"/>
<path fill-rule="evenodd" clip-rule="evenodd" d="M120.275 9.54106C120.275 14.1056 93.6352 17.8071 60.7758 17.8071C27.9146 17.8071 1.2749 14.1056 1.2749 9.54106C1.2749 4.97648 27.9146 1.27502 60.7758 1.27502C93.6352 1.27502 120.275 4.97648 120.275 9.54106Z" stroke="#EED58A" stroke-width="2.55"/>
<path fill-rule="evenodd" clip-rule="evenodd" d="M102.626 54.3289C102.626 57.5399 83.8892 60.1425 60.7758 60.1425C37.6608 60.1425 18.9238 57.5399 18.9238 54.3289C18.9238 51.1179 37.6608 48.5153 60.7758 48.5153C83.8892 48.5153 102.626 51.1179 102.626 54.3289Z" stroke="#8C7752" stroke-width="2.55"/>
</svg>
