<svg width="96" height="118" viewBox="0 0 96 118" fill="none" xmlns="http://www.w3.org/2000/svg">
<path fill-rule="evenodd" clip-rule="evenodd" d="M13.0898 70.7921C13.0898 51.5449 28.6926 35.9421 47.9398 35.9421C67.1871 35.9421 82.7898 51.5449 82.7898 70.7921C82.7898 90.0394 67.1871 105.642 47.9398 105.642C28.6926 105.642 13.0898 90.0394 13.0898 70.7921Z" stroke="#EED58A" stroke-width="2.55"/>
<path d="M74.9995 33.3925C86.8666 41.7143 94.6049 55.3643 94.6049 70.7921C94.6049 96.1421 73.7124 116.692 47.9399 116.692C22.1674 116.692 1.2749 96.1421 1.2749 70.7921C1.2749 55.3954 8.98205 41.7693 20.8087 33.4428" stroke="#AF873D" stroke-width="2.55"/>
<path d="M25.374 30.342V17.34C25.374 8.46757 32.5666 1.27502 41.439 1.27502H54.441C63.3135 1.27502 70.506 8.46757 70.506 17.34V30.342" stroke="#EED58A" stroke-width="2.55"/>
<path d="M47.9398 56.8217V84.7627" stroke="#AF873D" stroke-width="2.55"/>
</svg>
