<svg width="94" height="94" viewBox="0 0 94 94" fill="none" xmlns="http://www.w3.org/2000/svg">
<path d="M57.4725 64.9568L67.2561 88.5764L61.7128 90.8725L51.9292 67.2529L57.4725 64.9568Z" fill="#AF873D"/>
<path d="M31.5613 2.40186L41.3449 26.0215L35.8017 28.3176L26.0181 4.69796L31.5613 2.40186Z" fill="#AF873D"/>
<path d="M61.7128 2.40186L67.2561 4.69796L57.4725 28.3176L51.9292 26.0215L61.7128 2.40186Z" fill="#AF873D"/>
<path d="M35.8017 64.9568L41.3449 67.2529L31.5613 90.8725L26.0181 88.5764L35.8017 64.9568Z" fill="#AF873D"/>
<path d="M67.2531 51.9294L90.8728 61.713L88.5767 67.2563L64.957 57.4727L67.2531 51.9294Z" fill="#AF873D"/>
<path d="M4.69796 26.0181L28.3176 35.8017L26.0215 41.3449L2.40186 31.5613L4.69796 26.0181Z" fill="#AF873D"/>
<path d="M77.4937 11.5381L81.7364 15.7807L63.6587 33.8584L59.416 29.6158L77.4937 11.5381Z" fill="#AF873D"/>
<path d="M29.6158 59.4158L33.8584 63.6584L15.7807 81.7361L11.5381 77.4935L29.6158 59.4158Z" fill="#AF873D"/>
<path d="M63.6587 59.4158L81.7364 77.4935L77.4937 81.7361L59.416 63.6584L63.6587 59.4158Z" fill="#AF873D"/>
<path d="M15.7807 11.5381L33.8584 29.6158L29.6158 33.8584L11.5381 15.7807L15.7807 11.5381Z" fill="#AF873D"/>
<path d="M88.5767 26.0181L90.8728 31.5613L67.2531 41.3449L64.957 35.8017L88.5767 26.0181Z" fill="#AF873D"/>
<path d="M26.0215 51.9294L28.3176 57.4727L4.69796 67.2563L2.40186 61.713L26.0215 51.9294Z" fill="#AF873D"/>
<path d="M49.6372 25.5654V0H43.6372V25.5654H49.6372Z" fill="#AF873D"/>
<path d="M43.6372 67.709V93.2744H49.6372V67.709H43.6372Z" fill="#AF873D"/>
<path d="M67.709 49.6372H93.2744V43.6372H67.709V49.6372Z" fill="#AF873D"/>
<path d="M25.5654 43.6372H0V49.6372H25.5654V43.6372Z" fill="#AF873D"/>
</svg>
