<svg width="225" height="225" viewBox="0 0 225 225" fill="none" xmlns="http://www.w3.org/2000/svg">
<path d="M168.026 163.783L194.094 189.851L189.852 194.094L163.784 168.026L168.026 163.783Z" fill="#EED58A"/>
<path d="M35.0586 30.8159L61.1265 56.8838L56.8838 61.1265L30.8159 35.0586L35.0586 30.8159Z" fill="#EED58A"/>
<path d="M56.8838 163.783L61.1265 168.026L35.0586 194.094L30.8159 189.851L56.8838 163.783Z" fill="#EED58A"/>
<path d="M189.852 30.8159L194.094 35.0586L168.026 61.1265L163.784 56.8838L189.852 30.8159Z" fill="#EED58A"/>
<path d="M215.202 66.6487L217.498 72.192L183.439 86.2997L181.143 80.7564L215.202 66.6487Z" fill="#EED58A"/>
<path d="M41.4712 138.61L43.7673 144.154L9.70821 158.261L7.41211 152.718L41.4712 138.61Z" fill="#EED58A"/>
<path d="M144.154 181.143L158.261 215.202L152.718 217.498L138.61 183.439L144.154 181.143Z" fill="#EED58A"/>
<path d="M72.1922 7.41235L86.2999 41.4714L80.7566 43.7675L66.6489 9.70845L72.1922 7.41235Z" fill="#EED58A"/>
<path d="M80.7566 181.143L86.2999 183.439L72.1922 217.498L66.6489 215.202L80.7566 181.143Z" fill="#EED58A"/>
<path d="M152.718 7.41235L158.261 9.70845L144.154 43.7675L138.61 41.4714L152.718 7.41235Z" fill="#EED58A"/>
<path d="M9.70821 66.6487L43.7673 80.7564L41.4712 86.2997L7.41211 72.192L9.70821 66.6487Z" fill="#EED58A"/>
<path d="M183.439 138.61L217.498 152.718L215.202 158.261L181.143 144.154L183.439 138.61Z" fill="#EED58A"/>
<path d="M109.455 0V36.8655H115.455V0H109.455Z" fill="#EED58A"/>
<path d="M109.455 188.019V224.885H115.455V188.019H109.455Z" fill="#EED58A"/>
<path d="M224.91 109.455H188.044V115.455H224.91V109.455Z" fill="#EED58A"/>
<path d="M36.8655 110.222H0V116.222H36.8655V110.222Z" fill="#EED58A"/>
</svg>
